HIERARCHY
ROOT Hips
{
 OFFSET 0.000000 0.000000 0.000000
 CHANNELS 6 Xposition Yposition Zposition Yrotation Xrotation Zrotation
 JOINT Chest
 {
  OFFSET 0.000000 10.383400 0.001500
  CHANNELS 3 Yrotation Xrotation Zrotation
  JOINT Chest2
  {
   OFFSET 0.000000 10.418200 -0.003100
   CHANNELS 3 Yrotation Xrotation Zrotation
   JOINT Chest3
   {
    OFFSET 0.000000 10.375100 0.000000
    CHANNELS 3 Yrotation Xrotation Zrotation
    JOINT Chest4
    {
     OFFSET 0.000000 10.364600 0.000000
     CHANNELS 3 Yrotation Xrotation Zrotation
     JOINT Neck
     {
      OFFSET 0.000000 15.642200 0.000000
      CHANNELS 3 Yrotation Xrotation Zrotation
      JOINT Head
      {
       OFFSET 0.000000 9.697300 -0.006500
       CHANNELS 3 Yrotation Xrotation Zrotation
       End Site
       {
        OFFSET 0.000000 18.492200 -0.003400
       }
      }
     }
     JOINT RightCollar
     {
      OFFSET -3.166800 10.349300 0.000000
      CHANNELS 3 Yrotation Xrotation Zrotation
      JOINT RightShoulder
      {
       OFFSET -14.729700 0.000000 0.000000
       CHANNELS 3 Yrotation Xrotation Zrotation
       JOINT RightElbow
       {
        OFFSET 0.000000 -32.224300 0.000000
        CHANNELS 3 Yrotation Xrotation Zrotation
        JOINT RightWrist
        {
         OFFSET 0.000000 -26.084100 0.000000
         CHANNELS 3 Yrotation Xrotation Zrotation
         End Site
         {
          OFFSET 0.000000 -19.319400 0.000000
         }
        }
       }
      }
     }
     JOINT LeftCollar
     {
      OFFSET 3.166800 10.349300 0.000000
      CHANNELS 3 Yrotation Xrotation Zrotation
      JOINT LeftShoulder
      {
       OFFSET 14.729700 0.000000 0.000000
       CHANNELS 3 Yrotation Xrotation Zrotation
       JOINT LeftElbow
       {
        OFFSET 0.000000 -32.224300 0.000000
        CHANNELS 3 Yrotation Xrotation Zrotation
        JOINT LeftWrist
        {
         OFFSET 0.000000 -26.084100 0.000000
         CHANNELS 3 Yrotation Xrotation Zrotation
         End Site
         {
          OFFSET 0.000000 -19.319400 0.000000
         }
        }
       }
      }
     }
    }
   }
  }
 }
 JOINT RightHip
 {
  OFFSET -8.428900 -0.007500 -0.000800
  CHANNELS 3 Yrotation Xrotation Zrotation
  JOINT RightKnee
  {
   OFFSET 0.000000 -43.834600 0.000700
   CHANNELS 3 Yrotation Xrotation Zrotation
   JOINT RightAnkle
   {
    OFFSET 0.000000 -42.757000 0.001200
    CHANNELS 3 Yrotation Xrotation Zrotation
    JOINT RightToe
    {
     OFFSET 0.000000 -6.946900 15.649300
     CHANNELS 3 Yrotation Xrotation Zrotation
     End Site
     {
      OFFSET 0.000000 -1.580800 6.825800
     }
    }
   }
  }
 }
 JOINT LeftHip
 {
  OFFSET 8.428900 -0.007500 -0.000800
  CHANNELS 3 Yrotation Xrotation Zrotation
  JOINT LeftKnee
  {
   OFFSET 0.000000 -43.834600 0.000700
   CHANNELS 3 Yrotation Xrotation Zrotation
   JOINT LeftAnkle
   {
    OFFSET 0.000000 -42.757000 0.001200
    CHANNELS 3 Yrotation Xrotation Zrotation
    JOINT LeftToe
    {
     OFFSET 0.000000 -6.946900 15.649300
     CHANNELS 3 Yrotation Xrotation Zrotation
     End Site
     {
      OFFSET 0.000000 -1.580800 6.825800
     }
    }
   }
  }
 }
}
MOTION
Frames: 15
Frame Time: 0.008333
0.000000 93.354300 0.000000 0.000000 -5.767877 0.000000 0.000000 11.653817 0.000000 0.000000 -5.885947 0.000000 0.000000 -0.000000 0.000000 0.000000 -0.000000 0.000000 0.000000 12.528835 0.000000 0.000000 0.711642 0.000000 0.000000 -0.000000 0.000000 0.000000 0.000000 -90.000000 0.000000 -2.309062 0.000000 0.000000 2.309062 0.000000 0.000000 -0.000000 0.000000 0.000000 -0.000000 90.000000 0.000000 -2.309062 0.000000 0.000000 2.309062 0.000000 0.000000 8.520406 0.000000 0.000000 1.905762 0.000000 -0.000000 -4.658285 0.000000 0.000000 -0.000000 0.000000 0.000000 8.520406 0.000000 0.000000 1.905762 0.000000 -0.000000 -4.658285 0.000000 0.000000 -0.000000 0.000000
129.013543 126.884643 8.142153 -12.934202 -27.139668 -1.649210 -1.462532 17.407832 2.536454 -0.200993 1.886815 0.299294 -0.319232 3.135924 0.487589 -1.310921 15.249214 2.238139 1.839876 12.456438 -2.546133 4.574023 -12.516701 -5.631340 0.234043 -7.598683 -4.027444 7.091955 -16.979958 -4.975081 23.736474 -34.058448 -4.344156 6.868560 0.792271 -21.815986 -2.098549 -9.829135 -3.641668 -2.869713 -8.901295 2.892148 -32.127697 -44.540164 10.510646 -19.320383 4.680378 24.846567 -4.072103 -42.629866 -1.370748 -23.470833 74.593681 -26.281819 4.759444 -4.818426 9.207530 -0.001443 -0.009245 -0.000640 -4.611014 -36.107708 -6.112672 -1.959127 66.990131 3.414315 -14.991021 -4.220875 -8.471943 -0.000891 0.000602 -0.000396
129.013439 126.884758 8.142011 -12.935227 -27.138971 -1.648081 -1.455377 17.408363 2.533758 -0.200521 1.884741 0.299131 -0.310181 3.137691 0.481286 -1.311952 15.249522 2.241300 1.844952 12.457199 -2.543323 4.562216 -12.518410 -5.615415 0.221616 -7.601630 -4.015590 7.099329 -16.977988 -4.976542 23.741486 -34.053215 -4.355307 6.871579 0.796067 -21.807682 -2.110749 -9.833551 -3.632697 -2.869348 -8.896714 2.892792 -32.124661 -44.545108 10.512629 -19.319606 4.682418 24.842837 -4.064756 -42.626475 -1.372237 -23.464219 74.587396 -26.269869 4.752188 -4.820068 9.204777 -0.000553 -0.007531 -0.000245 -4.605565 -36.107206 -6.113870 -1.963360 66.987987 3.413252 -14.991902 -4.220043 -8.474859 -0.001300 0.000491 -0.000577
129.013063 126.884810 8.141662 -12.935750 -27.137289 -1.648588 -1.448823 17.408443 2.533266 -0.198986 1.884781 0.297344 -0.309765 3.137263 0.482086 -1.312463 15.249053 2.242011 1.849620 12.458935 -2.541374 4.554723 -12.520619 -5.599252 0.211796 -7.610245 -4.007840 7.109582 -16.970389 -4.975368 23.744889 -34.046122 -4.368632 6.870748 0.793065 -21.800927 -2.115108 -9.839881 -3.630917 -2.867832 -8.891273 2.892708 -32.125601 -44.541564 10.512033 -19.322610 4.675403 24.839712 -4.064014 -42.627507 -1.371778 -23.434593 74.586458 -26.237942 4.750740 -4.816469 9.201578 0.000885 -0.008051 0.000393 -4.604260 -36.107497 -6.113483 -1.966878 66.985608 3.414081 -14.989282 -4.219953 -8.478916 -0.001441 0.000680 -0.000640
129.012725 126.884986 8.141598 -12.934666 -27.137246 -1.649184 -1.447123 17.409197 2.533017 -0.195137 1.886192 0.294789 -0.312437 3.135548 0.484301 -1.309759 15.249834 2.240467 1.851496 12.458988 -2.538262 4.551370 -12.518810 -5.584654 0.202900 -7.618004 -3.999290 7.113741 -16.962676 -4.972705 23.750127 -34.039324 -4.381712 6.875357 0.792117 -21.798084 -2.116708 -9.841383 -3.632816 -2.872443 -8.888811 2.893784 -32.116322 -44.544303 10.510925 -19.335722 4.678090 24.838683 -4.064546 -42.625450 -1.369007 -23.433340 74.583516 -26.236768 4.744849 -4.816020 9.203355 0.000501 -0.006758 0.000222 -4.605086 -36.106495 -6.116372 -1.963906 66.985383 3.418100 -14.965237 -4.218654 -8.482521 -0.000434 0.000681 -0.000193
129.012771 126.884929 8.141224 -12.938859 -27.135125 -1.645914 -1.441646 17.407412 2.531729 -0.192192 1.886338 0.293716 -0.314203 3.134843 0.484932 -1.296527 15.248227 2.233059 1.842959 12.461535 -2.526939 4.546005 -12.517438 -5.571394 0.187101 -7.618042 -3.987392 7.108909 -16.957936 -4.964561 23.757971 -34.035874 -4.394162 6.881307 0.798585 -21.801472 -2.124005 -9.842168 -3.630619 -2.882252 -8.883732 2.896250 -32.120867 -44.542862 10.520405 -19.334950 4.675597 24.837825 -4.055057 -42.630598 -1.373518 -23.440651 74.583127 -26.241930 4.755218 -4.807971 9.208038 0.002837 -0.006650 0.001259 -4.597766 -36.107156 -6.116450 -1.944798 66.981904 3.433468 -14.966146 -4.216014 -8.483654 -0.000176 0.000843 -0.000078
129.012632 126.884613 8.140285 -12.943529 -27.130290 -1.644672 -1.434882 17.405301 2.531304 -0.192946 1.885285 0.294219 -0.310299 3.135606 0.482647 -1.299205 15.245440 2.236339 1.845605 12.465335 -2.527172 4.541983 -12.517956 -5.561770 0.186231 -7.617477 -3.985986 7.106130 -16.954727 -4.959337 23.763810 -34.035921 -4.402109 6.888458 0.819293 -21.795556 -2.122183 -9.842372 -3.630251 -2.880751 -8.878544 2.892401 -32.129087 -44.545056 10.531156 -19.331604 4.676882 24.839591 -4.052393 -42.636352 -1.372481 -23.434569 74.581106 -26.231462 4.752823 -4.802302 9.205141 0.005021 -0.005861 0.002229 -4.585967 -36.111538 -6.115349 -1.958877 66.980618 3.421956 -14.961041 -4.211558 -8.487111 0.000463 0.000913 0.000205
129.012688 126.884659 8.140269 -12.947716 -27.131187 -1.642154 -1.430858 17.406177 2.530520 -0.191165 1.886242 0.293068 -0.310902 3.135262 0.483445 -1.293684 15.248692 2.233491 1.844105 12.464387 -2.522513 4.537675 -12.516250 -5.557305 0.182238 -7.616233 -3.983122 7.101660 -16.959196 -4.956179 23.766846 -34.029071 -4.410500 6.888793 0.815474 -21.788905 -2.125761 -9.845700 -3.625006 -2.880447 -8.873964 2.887996 -32.138452 -44.548170 10.537499 -19.328729 4.679249 24.846312 -4.051547 -42.635400 -1.369037 -23.459239 74.571906 -26.263060 4.761398 -4.797451 9.212012 0.003174 -0.005668 0.001409 -4.579210 -36.110486 -6.115693 -1.949725 66.977857 3.431944 -14.969165 -4.206911 -8.489701 0.001335 0.000499 0.000593
129.012155 126.884848 8.140438 -12.950271 -27.134387 -1.644040 -1.425550 17.409731 2.533651 -0.190692 1.886452 0.293004 -0.311689 3.135220 0.483668 -1.288670 15.250628 2.232202 1.842584 12.463364 -2.518557 4.534842 -12.510836 -5.551769 0.175379 -7.616656 -3.980145 7.098419 -16.955224 -4.946033 23.781060 -34.028186 -4.435553 6.889046 0.829158 -21.774021 -2.128350 -9.846112 -3.621729 -2.873292 -8.874914 2.884017 -32.142871 -44.543299 10.528388 -19.333252 4.675707 24.856008 -4.055588 -42.633562 -1.362373 -23.470508 74.572358 -26.280321 4.763793 -4.797822 9.216049 0.001929 -0.006195 0.000856 -4.578245 -36.107805 -6.108267 -1.949104 66.977455 3.431811 -14.987316 -4.204150 -8.489893 0.000711 0.000593 0.000316
129.012020 126.884731 8.140250 -12.950635 -27.134925 -1.645734 -1.419943 17.408004 2.533745 -0.193400 1.886489 0.292872 -0.311030 3.134824 0.484167 -1.285261 15.249972 2.234959 1.843282 12.467857 -2.515975 4.528784 -12.506976 -5.547133 0.171626 -7.610372 -3.978237 7.094374 -16.953887 -4.944385 23.803082 -34.024188 -4.447724 6.875289 0.841786 -21.774121 -2.120431 -9.833813 -3.624854 -2.874731 -8.878248 2.887898 -32.146902 -44.547100 10.522674 -19.337889 4.673793 24.857832 -4.057783 -42.636191 -1.363584 -23.464095 74.577002 -26.275382 4.771314 -4.797424 9.215013 0.001603 -0.007119 0.000711 -4.579683 -36.107906 -6.102741 -1.944809 66.975851 3.435286 -15.003676 -4.201535 -8.490703 0.000746 0.000520 0.000331
129.012302 126.884676 8.140428 -12.950776 -27.136930 -1.645061 -1.418894 17.409898 2.533560 -0.189975 1.886535 0.293729 -0.310616 3.135090 0.484757 -1.272631 15.249604 2.240753 1.830631 12.468308 -2.517894 4.525639 -12.499594 -5.547137 0.163254 -7.605201 -3.985251 7.078705 -16.954187 -4.936124 23.817028 -34.027273 -4.456786 6.882084 0.868731 -21.767671 -2.136067 -9.832780 -3.628137 -2.857287 -8.879051 2.880790 -32.160272 -44.543861 10.526033 -19.339505 4.672880 24.858799 -4.056902 -42.637804 -1.368605 -23.466584 74.584257 -26.279488 4.777281 -4.799110 9.219000 0.001801 -0.006199 0.000799 -4.579105 -36.106694 -6.098518 -1.938780 66.973001 3.438483 -15.031582 -4.197593 -8.488614 -0.000394 0.000443 -0.000175
129.012515 126.884493 8.140393 -12.951683 -27.137515 -1.644619 -1.415315 17.409395 2.535626 -0.189422 1.886401 0.293731 -0.309600 3.134997 0.485070 -1.267733 15.251176 2.239831 1.823772 12.467664 -2.515681 4.524683 -12.498843 -5.547014 0.158706 -7.602312 -3.984132 7.072603 -16.956894 -4.934366 23.821100 -34.027259 -4.461934 6.886730 0.878557 -21.760866 -2.134603 -9.831620 -3.628946 -2.866284 -8.880355 2.879588 -32.156769 -44.542631 10.528222 -19.337615 4.671871 24.856791 -4.051761 -42.642162 -1.376124 -23.455535 74.593872 -26.265021 4.777043 -4.799468 9.218666 0.002807 -0.006362 0.001246 -4.577630 -36.107734 -6.095661 -1.946303 66.974140 3.427022 -15.036015 -4.192911 -8.483066 -0.000919 0.000643 -0.000408
129.012971 126.883969 8.139738 -12.952153 -27.133803 -1.643580 -1.410732 17.407851 2.535916 -0.184164 1.887558 0.292168 -0.313325 3.133338 0.487091 -1.262709 15.250591 2.238740 1.821526 12.468454 -2.512003 4.520579 -12.497298 -5.544933 0.148546 -7.602730 -3.979634 7.071085 -16.957868 -4.934918 23.822859 -34.025960 -4.464703 6.889374 0.885550 -21.755124 -2.136078 -9.829091 -3.634488 -2.875125 -8.881600 2.889590 -32.151289 -44.544222 10.526624 -19.329027 4.673669 24.853916 -4.049146 -42.653222 -1.381138 -23.451859 74.603064 -26.264465 4.775754 -4.796869 9.225957 0.000332 -0.008215 0.000147 -4.579594 -36.114401 -6.094609 -1.938860 66.978970 3.424979 -15.019536 -4.191629 -8.476778 -0.000727 -0.000547 -0.000323
129.013249 126.883621 8.139274 -12.954661 -27.131618 -1.641955 -1.404253 17.406410 2.535296 -0.184146 1.888420 0.291835 -0.306356 3.134369 0.485029 -1.266704 15.248719 2.242619 1.832064 12.471262 -2.513872 4.506585 -12.499747 -5.535774 0.143510 -7.604126 -3.977338 7.072085 -16.955456 -4.938912 23.821525 -34.025275 -4.465525 6.887975 0.887172 -21.752343 -2.137885 -9.830768 -3.637485 -2.880392 -8.880490 2.894385 -32.147852 -44.542850 10.526254 -19.326803 4.671777 24.851095 -4.042077 -42.663237 -1.386804 -23.454999 74.610904 -26.265570 4.773195 -4.792252 9.231038 0.000871 -0.010341 0.000387 -4.576722 -36.117135 -6.095998 -1.936995 66.982110 3.423262 -15.004845 -4.192959 -8.472885 -0.000883 -0.000570 -0.000392
129.012794 126.883337 8.138504 -12.959157 -27.129147 -1.643289 -1.392305 17.406597 2.537255 -0.188722 1.886300 0.294609 -0.305018 3.134162 0.484426 -1.262574 15.249984 2.244186 1.830330 12.470062 -2.512589 4.507525 -12.497914 -5.529733 0.139069 -7.606915 -3.976318 7.075862 -16.952272 -4.944878 23.814439 -34.026567 -4.463024 6.886358 0.885924 -21.751428 -2.143349 -9.832692 -3.641514 -2.884185 -8.879107 2.897802 -32.145265 -44.541334 10.528397 -19.325629 4.669494 24.848752 -4.038121 -42.670210 -1.384220 -23.459640 74.617716 -26.269653 4.771120 -4.793468 9.234601 0.002093 -0.009831 0.000929 -4.575415 -36.119283 -6.093128 -1.942468 66.984845 3.418278 -14.989959 -4.195827 -8.471713 -0.000599 -0.000403 -0.000266
